<?xml version="1.0" standalone="no"?>
<!DOCTYPE svg PUBLIC "-//W3C//DTD SVG 20010904//EN"
 "http://www.w3.org/TR/2001/REC-SVG-20010904/DTD/svg10.dtd">
<svg version="1.0" xmlns="http://www.w3.org/2000/svg"
 width="500.000000pt" height="500.000000pt" viewBox="0 0 500.000000 500.000000"
 preserveAspectRatio="xMidYMid meet">
<metadata>
Created by potrace 1.14, written by Peter Selinger 2001-2017
</metadata>
<g transform="translate(0.000000,500.000000) scale(0.100000,-0.100000)"
fill="#000000" stroke="none">
<path d="M2530 4240 c-30 -4 -76 -10 -102 -14 -59 -8 -237 -61 -298 -88 -262
-117 -411 -218 -611 -418 -116 -115 -210 -230 -252 -305 -9 -16 -44 -93 -78
-170 -33 -77 -67 -153 -74 -170 -8 -16 -66 -148 -129 -292 -63 -144 -124 -281
-134 -305 -11 -24 -34 -77 -52 -118 -18 -41 -41 -94 -51 -117 -56 -123 -179
-406 -179 -409 0 -2 90 -4 200 -4 l200 0 0 -538 0 -537 873 0 872 1 85 38
c298 136 601 316 831 493 113 87 327 292 384 367 17 22 39 51 51 65 38 48 100
145 141 221 188 351 220 747 92 1164 -35 113 -118 313 -149 356 -11 15 -20 31
-20 35 0 24 -123 178 -220 275 -307 308 -724 475 -1194 477 -72 1 -156 -2
-186 -7z m400 -205 c266 -45 469 -122 652 -246 84 -57 109 -79 201 -172 128
-131 197 -239 276 -438 81 -202 115 -365 115 -559 0 -202 -30 -345 -109 -516
-25 -53 -98 -183 -117 -209 -90 -121 -238 -283 -334 -365 -196 -169 -471 -344
-779 -496 l-160 -78 -750 -1 -750 0 -3 538 -2 537 -145 0 c-80 0 -145 4 -145
8 0 6 136 321 185 427 7 17 22 50 33 75 11 25 31 70 45 100 13 30 39 89 57
130 18 41 43 98 55 125 12 28 57 131 100 230 93 212 148 296 290 439 114 115
133 132 230 202 163 117 321 194 490 239 87 23 95 25 155 31 30 3 57 8 59 10
6 6 308 -4 351 -11z"/>
<path d="M2500 3258 l0 -303 -214 214 -214 214 -131 -131 c-72 -72 -131 -135
-131 -139 0 -5 92 -100 205 -213 113 -113 205 -207 205 -210 0 -3 -134 -5
-297 -5 l-298 0 0 -187 c0 -159 2 -187 15 -190 8 -2 142 -4 298 -3 155 0 282
-2 282 -5 0 -3 -92 -97 -205 -210 -113 -113 -205 -208 -205 -213 0 -4 59 -66
131 -139 l131 -131 214 214 214 214 0 -303 0 -302 190 0 190 0 0 302 0 303
214 -214 214 -214 135 135 135 136 -209 208 c-114 114 -206 210 -204 214 2 3
134 5 294 5 160 0 292 2 292 5 3 13 5 356 2 365 -2 7 -106 10 -298 10 -162 0
-295 2 -295 5 0 3 92 97 205 210 113 113 205 209 205 213 0 5 -59 68 -131 139
l-131 130 -214 -213 -214 -214 0 303 0 302 -190 0 -190 0 0 -302z"/>
</g>
</svg>
